<svg xmlns="http://www.w3.org/2000/svg" width="1600" height="1000" viewBox="0 0 1600 1000">
<defs>
  <linearGradient id="g" x1="0" x2="1" y1="0" y2="1"><stop offset="0" stop-color="#4c4237"/><stop offset=".45" stop-color="#201b16"/><stop offset="1" stop-color="#0f0d0b"/></linearGradient>
  <linearGradient id="wood" x1="0" x2="1"><stop offset="0" stop-color="#7b5739"/><stop offset=".5" stop-color="#b98a58"/><stop offset="1" stop-color="#4d3422"/></linearGradient>
  <linearGradient id="stone" x1="0" x2="1" y1="0" y2="1"><stop offset="0" stop-color="#e7ded0"/><stop offset=".5" stop-color="#9f9488"/><stop offset="1" stop-color="#35302b"/></linearGradient>
  <filter id="grain"><feTurbulence baseFrequency=".78" numOctaves="3" seed="7" type="fractalNoise"/><feColorMatrix type="saturate" values="0"/><feComponentTransfer><feFuncA type="table" tableValues="0 .09"/></feComponentTransfer></filter>
  <filter id="soft"><feDropShadow dx="0" dy="26" stdDeviation="30" flood-color="#000" flood-opacity=".35"/></filter>
</defs>
<rect width="100%" height="100%" fill="url(#g)"/>
<rect width="100%" height="100%" filter="url(#grain)" opacity=".65"/>

<rect x="0" y="0" width="100%" height="48%" fill="#191613" opacity=".95"/>
<rect x="0" y="560" width="100%" height="440" fill="#2a241d"/>
<path d="M0 560 L1600 560 L1600 1000 L0 1000 Z" fill="#191511" opacity=".5"/>
<g filter="url(#soft)">
  <rect x="800" y="248" width="330" height="260" rx="18" fill="#ddd3c4" opacity=".9"/>
  <rect x="1150" y="248" width="260" height="260" rx="18" fill="#b9a58e" opacity=".86"/>
  <rect x="690" y="612" width="760" height="188" rx="22" fill="#2d2a25"/>
  <rect x="690" y="612" width="760" height="18" rx="8" fill="url(#stone)"/>
</g>
<path d="M860 120 C1000 80 1190 90 1350 180" fill="none" stroke="#d8b889" stroke-width="3" opacity=".55"/>
<circle cx="1040" cy="160" r="16" fill="#d8b889" opacity=".26"/>
<circle cx="1250" cy="180" r="10" fill="#f5e3c2" opacity=".42"/>
<rect x="545" y="220" width="160" height="320" rx="16" fill="#10100f" opacity=".62"/>

</svg>