<svg xmlns="http://www.w3.org/2000/svg" width="860" height="650" viewBox="0 0 860 650">
<defs>
  <linearGradient id="g" x1="0" x2="1" y1="0" y2="1"><stop offset="0" stop-color="#4c4237"/><stop offset=".45" stop-color="#201b16"/><stop offset="1" stop-color="#0f0d0b"/></linearGradient>
  <linearGradient id="wood" x1="0" x2="1"><stop offset="0" stop-color="#7b5739"/><stop offset=".5" stop-color="#b98a58"/><stop offset="1" stop-color="#4d3422"/></linearGradient>
  <linearGradient id="stone" x1="0" x2="1" y1="0" y2="1"><stop offset="0" stop-color="#e7ded0"/><stop offset=".5" stop-color="#9f9488"/><stop offset="1" stop-color="#35302b"/></linearGradient>
  <filter id="grain"><feTurbulence baseFrequency=".78" numOctaves="3" seed="7" type="fractalNoise"/><feColorMatrix type="saturate" values="0"/><feComponentTransfer><feFuncA type="table" tableValues="0 .09"/></feComponentTransfer></filter>
  <filter id="soft"><feDropShadow dx="0" dy="26" stdDeviation="30" flood-color="#000" flood-opacity=".35"/></filter>
</defs>
<rect width="100%" height="100%" fill="url(#g)"/>
<rect width="100%" height="100%" filter="url(#grain)" opacity=".65"/>

<rect x="0" y="0" width="100%" height="48%" fill="#191613" opacity=".95"/>
<rect x="0" y="360" width="100%" height="290" fill="#2a241d"/>
<path d="M0 360 L860 360 L860 650 L0 650 Z" fill="#191511" opacity=".5"/>
<g filter="url(#soft)">
  <rect x="90" y="162" width="225" height="180" rx="18" fill="#ddd3c4" opacity=".9"/>
  <rect x="336" y="162" width="320" height="180" rx="18" fill="#b9a58e" opacity=".86"/>
  <rect x="180" y="395" width="500" height="112" rx="22" fill="#2d2a25"/>
  <rect x="180" y="395" width="500" height="18" rx="8" fill="url(#stone)"/>
</g>
<path d="M155 86 C300 56 480 58 662 100" fill="none" stroke="#d8b889" stroke-width="3" opacity=".55"/>
<circle cx="348" cy="104" r="16" fill="#d8b889" opacity=".26"/>
<circle cx="585" cy="112" r="10" fill="#f5e3c2" opacity=".42"/>
<rect x="675" y="140" width="92" height="190" rx="16" fill="#10100f" opacity=".62"/>

</svg>