<svg xmlns="http://www.w3.org/2000/svg" width="860" height="650" viewBox="0 0 860 650">
<defs>
  <linearGradient id="g" x1="0" x2="1" y1="0" y2="1"><stop offset="0" stop-color="#4c4237"/><stop offset=".45" stop-color="#201b16"/><stop offset="1" stop-color="#0f0d0b"/></linearGradient>
  <linearGradient id="wood" x1="0" x2="1"><stop offset="0" stop-color="#7b5739"/><stop offset=".5" stop-color="#b98a58"/><stop offset="1" stop-color="#4d3422"/></linearGradient>
  <linearGradient id="stone" x1="0" x2="1" y1="0" y2="1"><stop offset="0" stop-color="#e7ded0"/><stop offset=".5" stop-color="#9f9488"/><stop offset="1" stop-color="#35302b"/></linearGradient>
  <filter id="grain"><feTurbulence baseFrequency=".78" numOctaves="3" seed="7" type="fractalNoise"/><feColorMatrix type="saturate" values="0"/><feComponentTransfer><feFuncA type="table" tableValues="0 .09"/></feComponentTransfer></filter>
  <filter id="soft"><feDropShadow dx="0" dy="26" stdDeviation="30" flood-color="#000" flood-opacity=".35"/></filter>
</defs>
<rect width="100%" height="100%" fill="url(#g)"/>
<rect width="100%" height="100%" filter="url(#grain)" opacity=".65"/>

<rect x="0" y="0" width="100%" height="48%" fill="#191613" opacity=".95"/>
<rect x="0" y="358" width="100%" height="292" fill="#2a241d"/>
<path d="M0 358 L860 358 L860 650 L0 650 Z" fill="#191511" opacity=".5"/>
<g filter="url(#soft)">
  <rect x="86" y="145" width="292" height="176" rx="18" fill="#ddd3c4" opacity=".9"/>
  <rect x="406" y="145" width="240" height="176" rx="18" fill="#b9a58e" opacity=".86"/>
  <rect x="146" y="388" width="545" height="116" rx="22" fill="#2d2a25"/>
  <rect x="146" y="388" width="545" height="18" rx="8" fill="url(#stone)"/>
</g>
<path d="M158 76 C305 48 480 46 660 92" fill="none" stroke="#d8b889" stroke-width="3" opacity=".55"/>
<circle cx="385" cy="96" r="16" fill="#d8b889" opacity=".26"/>
<circle cx="568" cy="110" r="10" fill="#f5e3c2" opacity=".42"/>
<rect x="668" y="128" width="92" height="192" rx="16" fill="#10100f" opacity=".62"/>

</svg>